<svg id="facebook" xmlns="http://www.w3.org/2000/svg" width="18.784" height="34.744" viewBox="0 0 18.784 34.744">
  <path id="Path_1" data-name="Path 1" d="M40.154.007,35.648,0c-5.062,0-8.333,3.356-8.333,8.55v3.942h-4.53a.709.709,0,0,0-.708.709v5.712a.708.708,0,0,0,.708.708h4.53V34.035a.708.708,0,0,0,.708.708h5.91a.708.708,0,0,0,.708-.708V19.622h5.3a.708.708,0,0,0,.708-.708l0-5.712a.709.709,0,0,0-.709-.709h-5.3V9.151c0-1.606.383-2.422,2.475-2.422h3.035a.708.708,0,0,0,.708-.708V.716A.709.709,0,0,0,40.154.007Z" transform="translate(-22.077)"/>
</svg>
