<svg id="logo" xmlns="http://www.w3.org/2000/svg" width="31.301" height="31.301" viewBox="0 0 31.301 31.301">
  <path id="Path_3" data-name="Path 3" d="M22.663,0H8.638A8.648,8.648,0,0,0,0,8.638V22.663A8.648,8.648,0,0,0,8.638,31.3H22.663A8.648,8.648,0,0,0,31.3,22.663V8.638A8.648,8.648,0,0,0,22.663,0Zm5.861,22.663a5.868,5.868,0,0,1-5.861,5.861H8.638a5.867,5.867,0,0,1-5.861-5.861V8.638A5.867,5.867,0,0,1,8.638,2.777H22.663a5.868,5.868,0,0,1,5.861,5.861V22.663Z"/>
  <path id="Path_4" data-name="Path 4" d="M49.033,40.97A8.065,8.065,0,1,0,57.1,49.036,8.075,8.075,0,0,0,49.033,40.97Zm0,13.353a5.288,5.288,0,1,1,5.288-5.288A5.294,5.294,0,0,1,49.033,54.323Z" transform="translate(-33.383 -33.385)"/>
  <path id="Path_5" data-name="Path 5" d="M120.958,28.251a2.035,2.035,0,1,0,1.44.6A2.045,2.045,0,0,0,120.958,28.251Z" transform="translate(-96.903 -23.02)"/>
</svg>
