<svg xmlns="http://www.w3.org/2000/svg" width="34.355" height="34.427" viewBox="0 0 34.355 34.427">
  <g id="phone" transform="translate(-0.539)">
    <g id="Group_31" data-name="Group 31" transform="translate(0.539 0)">
      <path id="Path_40" data-name="Path 40" d="M33.993,25.266l-4.8-4.8a3.2,3.2,0,0,0-5.319,1.2,3.27,3.27,0,0,1-3.775,2.059c-3.432-.858-8.065-5.319-8.923-8.923a3.11,3.11,0,0,1,2.059-3.775,3.2,3.2,0,0,0,1.2-5.319L9.628.9A3.427,3.427,0,0,0,5,.9l-3.26,3.26c-3.26,3.432.343,12.526,8.408,20.591S27.3,36.591,30.733,33.159l3.26-3.26A3.427,3.427,0,0,0,33.993,25.266Z" transform="translate(-0.539 0)"/>
    </g>
  </g>
</svg>
