<svg id="twitter" xmlns="http://www.w3.org/2000/svg" width="33.326" height="27.078" viewBox="0 0 33.326 27.078">
  <g id="Group_1" data-name="Group 1" transform="translate(0 0)">
    <path id="Path_2" data-name="Path 2" d="M33.326,51.206a14.244,14.244,0,0,1-3.937,1.079A6.794,6.794,0,0,0,32.4,48.508a13.654,13.654,0,0,1-4.332,1.654,6.832,6.832,0,0,0-11.818,4.672,7.035,7.035,0,0,0,.158,1.558A19.339,19.339,0,0,1,2.32,49.246a6.834,6.834,0,0,0,2.1,9.131,6.747,6.747,0,0,1-3.087-.841v.075a6.864,6.864,0,0,0,5.474,6.713,6.819,6.819,0,0,1-1.791.225,6.041,6.041,0,0,1-1.293-.117,6.9,6.9,0,0,0,6.384,4.759,13.728,13.728,0,0,1-8.471,2.914A12.8,12.8,0,0,1,0,72.012a19.234,19.234,0,0,0,10.481,3.066c12.572,0,19.446-10.414,19.446-19.442,0-.3-.01-.594-.025-.883A13.63,13.63,0,0,0,33.326,51.206Z" transform="translate(0 -48)"/>
  </g>
</svg>
