<svg xmlns="http://www.w3.org/2000/svg" width="18.85" height="9.941" viewBox="0 0 18.85 9.941">
  <g id="eye" transform="translate(0 -121)">
    <g id="Group_49" data-name="Group 49" transform="translate(-0.001 121)">
      <g id="Group_48" data-name="Group 48" transform="translate(0 0)">
        <path id="Path_54" data-name="Path 54" d="M18.709,125.6c-.168-.188-4.215-4.6-9.284-4.6S.309,125.414.14,125.6a.552.552,0,0,0,0,.737c.168.188,4.215,4.6,9.284,4.6s9.116-4.414,9.284-4.6A.552.552,0,0,0,18.709,125.6Zm-9.284,4.234a3.866,3.866,0,1,1,3.866-3.866A3.87,3.87,0,0,1,9.425,129.836Z" transform="translate(0.001 -121)"/>
      </g>
    </g>
    <g id="Group_51" data-name="Group 51" transform="translate(6.663 123.209)">
      <g id="Group_50" data-name="Group 50" transform="translate(0 0)">
        <path id="Path_55" data-name="Path 55" d="M184.314,182.657a1.652,1.652,0,0,1,.7-1.345,2.726,2.726,0,0,0-1.248-.312,2.761,2.761,0,1,0,2.714,3.227A1.647,1.647,0,0,1,184.314,182.657Z" transform="translate(-181 -181)"/>
      </g>
    </g>
  </g>
</svg>
