<svg id="facebook" xmlns="http://www.w3.org/2000/svg" width="17.722" height="32.779" viewBox="0 0 17.722 32.779">
  <path id="Path_1" data-name="Path 1" d="M39.132.007,34.881,0c-4.776,0-7.862,3.166-7.862,8.067v3.719H22.745a.668.668,0,0,0-.668.669v5.389a.668.668,0,0,0,.668.668h4.274v13.6a.668.668,0,0,0,.668.668h5.576a.668.668,0,0,0,.668-.668v-13.6h5a.668.668,0,0,0,.668-.668l0-5.389a.669.669,0,0,0-.669-.669h-5V8.633c0-1.515.361-2.285,2.335-2.285h2.863a.668.668,0,0,0,.668-.668v-5A.669.669,0,0,0,39.132.007Z" transform="translate(-22.077)"/>
</svg>
