<svg xmlns="http://www.w3.org/2000/svg" width="11.332" height="10.082" viewBox="0 0 11.332 10.082">
  <path id="heart" d="M10.433.987A3.047,3.047,0,0,0,8.167,0,2.851,2.851,0,0,0,6.386.615a3.643,3.643,0,0,0-.72.752,3.641,3.641,0,0,0-.72-.752A2.85,2.85,0,0,0,3.166,0,3.047,3.047,0,0,0,.9.987,3.542,3.542,0,0,0,0,3.406,4.218,4.218,0,0,0,1.124,6.166,23.966,23.966,0,0,0,3.938,8.807c.39.332.832.709,1.291,1.11a.665.665,0,0,0,.876,0c.459-.4.9-.778,1.291-1.11a23.953,23.953,0,0,0,2.813-2.641,4.217,4.217,0,0,0,1.124-2.761,3.542,3.542,0,0,0-.9-2.419Zm0,0" transform="translate(-0.001)"/>
</svg>
