<svg id="logo" xmlns="http://www.w3.org/2000/svg" width="29.531" height="29.531" viewBox="0 0 29.531 29.531">
  <path id="Path_3" data-name="Path 3" d="M21.381,0H8.149A8.159,8.159,0,0,0,0,8.15V21.382a8.159,8.159,0,0,0,8.149,8.15H21.381a8.159,8.159,0,0,0,8.15-8.15V8.15A8.159,8.159,0,0,0,21.381,0Zm5.53,21.382a5.536,5.536,0,0,1-5.53,5.529H8.149A5.535,5.535,0,0,1,2.62,21.382V8.15A5.536,5.536,0,0,1,8.149,2.62H21.381a5.536,5.536,0,0,1,5.53,5.529V21.382Z"/>
  <path id="Path_4" data-name="Path 4" d="M48.577,40.97a7.609,7.609,0,1,0,7.609,7.609A7.618,7.618,0,0,0,48.577,40.97Zm0,12.6a4.989,4.989,0,1,1,4.989-4.989A4.995,4.995,0,0,1,48.577,53.568Z" transform="translate(-33.812 -33.814)"/>
  <path id="Path_5" data-name="Path 5" d="M120.842,28.251a1.92,1.92,0,1,0,1.359.562A1.929,1.929,0,0,0,120.842,28.251Z" transform="translate(-98.148 -23.316)"/>
</svg>
