<svg id="linkedin" xmlns="http://www.w3.org/2000/svg" width="27.547" height="27.547" viewBox="0 0 27.547 27.547">
  <path id="Path_43" data-name="Path 43" d="M26.285,26.428h.007v-10.1c0-4.942-1.064-8.75-6.842-8.75a6,6,0,0,0-5.4,2.969h-.08V8.035H8.489V26.426h5.7V17.32c0-2.4.455-4.716,3.424-4.716,2.926,0,2.969,2.736,2.969,4.87v8.954Z" transform="translate(1.255 1.119)"/>
  <path id="Path_44" data-name="Path 44" d="M.4,7.977H6.107V26.368H.4Z" transform="translate(0.059 1.179)"/>
  <path id="Path_45" data-name="Path 45" d="M3.308,0A3.323,3.323,0,1,0,6.616,3.308,3.309,3.309,0,0,0,3.308,0Z"/>
</svg>
