<svg xmlns="http://www.w3.org/2000/svg" width="9.187" height="10.022" viewBox="0 0 9.187 10.022">
  <g id="share" transform="translate(0 0)">
    <path id="Path_46" data-name="Path 46" d="M317.382,17.357A1.357,1.357,0,1,1,316.025,16a1.357,1.357,0,0,1,1.357,1.357Zm0,0" transform="translate(-308.508 -15.687)"/>
    <path id="Path_47" data-name="Path 47" d="M300.338,3.341a1.67,1.67,0,1,1,1.67-1.67A1.672,1.672,0,0,1,300.338,3.341Zm0-2.714a1.044,1.044,0,1,0,1.044,1.044A1.045,1.045,0,0,0,300.338.627Zm0,0" transform="translate(-292.822)"/>
    <path id="Path_48" data-name="Path 48" d="M317.382,358.689a1.357,1.357,0,1,1-1.357-1.357A1.357,1.357,0,0,1,317.382,358.689Zm0,0" transform="translate(-308.508 -350.337)"/>
    <path id="Path_49" data-name="Path 49" d="M300.338,344.673a1.67,1.67,0,1,1,1.67-1.67A1.672,1.672,0,0,1,300.338,344.673Zm0-2.714A1.044,1.044,0,1,0,301.382,343,1.045,1.045,0,0,0,300.338,341.958Zm0,0" transform="translate(-292.822 -334.65)"/>
    <path id="Path_50" data-name="Path 50" d="M18.715,188.025a1.357,1.357,0,1,1-1.357-1.357A1.357,1.357,0,0,1,18.715,188.025Zm0,0" transform="translate(-15.687 -183.014)"/>
    <path id="Path_51" data-name="Path 51" d="M1.67,174.009a1.67,1.67,0,1,1,1.67-1.67,1.672,1.672,0,0,1-1.67,1.67Zm0-2.714a1.044,1.044,0,1,0,1.044,1.044,1.045,1.045,0,0,0-1.044-1.044Zm0,0" transform="translate(0 -167.327)"/>
    <path id="Path_52" data-name="Path 52" d="M114.766,93.259a.418.418,0,0,1-.207-.781l3.875-2.209a.418.418,0,1,1,.413.726L114.973,93.2A.415.415,0,0,1,114.766,93.259Zm0,0" transform="translate(-112.11 -88.448)"/>
    <path id="Path_53" data-name="Path 53" d="M118.663,269.263a.415.415,0,0,1-.206-.055L114.582,267a.418.418,0,0,1,.413-.726l3.875,2.209a.418.418,0,0,1-.207.781Zm0,0" transform="translate(-112.132 -261.007)"/>
  </g>
</svg>
