<svg id="twitter" xmlns="http://www.w3.org/2000/svg" width="31.442" height="25.546" viewBox="0 0 31.442 25.546">
  <g id="Group_1" data-name="Group 1" transform="translate(0 0)">
    <path id="Path_2" data-name="Path 2" d="M31.442,51.024a13.439,13.439,0,0,1-3.714,1.018,6.41,6.41,0,0,0,2.836-3.563,12.882,12.882,0,0,1-4.087,1.56,6.445,6.445,0,0,0-11.15,4.408,6.637,6.637,0,0,0,.149,1.47A18.245,18.245,0,0,1,2.189,49.175,6.448,6.448,0,0,0,4.17,57.79,6.366,6.366,0,0,1,1.258,57v.071A6.475,6.475,0,0,0,6.422,63.4a6.433,6.433,0,0,1-1.69.212,5.7,5.7,0,0,1-1.22-.11,6.507,6.507,0,0,0,6.023,4.49,12.952,12.952,0,0,1-7.992,2.749A12.073,12.073,0,0,1,0,70.654a18.147,18.147,0,0,0,9.888,2.893c11.861,0,18.346-9.826,18.346-18.342,0-.285-.01-.56-.024-.833A12.859,12.859,0,0,0,31.442,51.024Z" transform="translate(0 -48)"/>
  </g>
</svg>
